<?xml version="1.0" encoding="iso-8859-1"?>
<!-- Generator: Adobe Illustrator 19.0.0, SVG Export Plug-In . SVG Version: 6.00 Build 0)  -->
<svg fill="#ffffff" version="1.1" id="Capa_1" xmlns="http://www.w3.org/2000/svg" xmlns:xlink="http://www.w3.org/1999/xlink" x="0px" y="0px"
	 viewBox="0 0 480 480" style="enable-background:new 0 0 480 480;" xml:space="preserve">
<g>
	<g>
		<g>
			<path d="M440,0H40C17.92,0.026,0.026,17.92,0,40v248c0.026,22.08,17.92,39.974,40,40h400c22.08-0.026,39.974-17.92,40-40V40
				C479.974,17.92,462.08,0.026,440,0z M464,288c0,13.255-10.745,24-24,24H40c-13.255,0-24-10.745-24-24V40
				c0-13.255,10.745-24,24-24h400c13.255,0,24,10.745,24,24V288z"/>
			<path d="M270.256,136H328V72c-0.026-22.08-17.92-39.974-40-40H184c-22.08,0.026-39.974,17.92-40,40v40h-16
				c-22.08,0.026-39.974,17.92-40,40v40H72c-22.08,0.026-39.974,17.92-40,40v64h184v-64c-0.023-4.974-0.981-9.9-2.824-14.52
				l1.08-1.48H272v-64c-0.023-4.974-0.98-9.9-2.824-14.52L270.256,136z M312,120h-32.288L312,75.6V120z M256.296,48l-46.552,64
				h-36.216l46.544-64H256.296z M160,72c0-13.255,10.745-24,24-24h16.296L160,103.4V72z M164.072,128h36.224l-46.552,64h-36.216
				L164.072,128z M104,152c0-13.255,10.745-24,24-24h16.296L104,183.4V152z M48,232c0-13.255,10.745-24,24-24h16.296L48,263.4V232z
				 M55.704,280l52.368-72h36.224l-52.368,72H55.704z M111.704,280l52.368-72H176c6.995,0.023,13.626,3.118,18.136,8.464
				L147.928,280H111.704z M200,280h-32.296L200,235.6V280z M203.928,200H200v0.208c-6.883-5.294-15.316-8.179-24-8.208h-2.472
				l46.544-64H232c6.995,0.023,13.626,3.118,18.136,8.464L203.928,200z M256,200h-32.296L256,155.6V200z M232,112h-2.472l46.544-64
				H288c6.996,0.025,13.629,3.119,18.144,8.464h-0.032L258.4,122.152C251.146,115.639,241.748,112.025,232,112z"/>
			<path d="M372,264c24.167-0.319,43.681-19.833,44-44c0.258-24.043-19.024-43.742-43.067-44c-0.311-0.003-0.622-0.003-0.933,0
				c-24.301,0-44,19.699-44,44S347.699,264,372,264z M372,192c15.295-0.169,27.831,12.093,28,27.389
				c0.002,0.204,0.002,0.408,0,0.611c-0.202,15.379-12.621,27.797-28,28c-15.464,0-28-12.536-28-28S356.536,192,372,192z"/>
			<path d="M296,216v8c0.044,39.746,32.254,71.956,72,72h8c39.746-0.044,71.956-32.254,72-72v-80.208h-80.048
				C328.233,144.077,296.144,176.28,296,216z M432,159.792V224c-0.04,30.911-25.089,55.96-56,56h-8c-30.911-0.04-55.96-25.089-56-56
				v-8c0.113-30.915,25.086-55.98,56-56.208H432z"/>
			<path d="M53.824,95.12l2.4,1.6c8.056,5.391,18.568,5.391,26.624,0l2.4-1.6c10.655-7.107,13.853-21.328,7.264-32.312
				c-0.233-0.386-0.501-0.75-0.8-1.088L75.656,42.808c-2.869-3.36-7.919-3.758-11.279-0.889c-0.319,0.273-0.617,0.57-0.889,0.889
				L47.328,61.72c-0.296,0.34-0.564,0.704-0.8,1.088C39.946,73.8,43.157,88.023,53.824,95.12z M60,71.512l9.6-11.2l9.6,11.2
				c1.851,3.621,0.691,8.054-2.696,10.304l-2.4,1.6c-2.688,1.794-6.192,1.794-8.88,0l-2.4-1.6
				C59.391,79.605,58.174,75.164,60,71.512z"/>
			<path d="M434.928,81.4c-3.372-2.982-7.231-5.363-11.408-7.04c0.28-0.757,0.442-1.553,0.48-2.36
				c0.008-22.091-17.893-40.007-39.985-40.015c-1.282,0-2.563,0.061-3.839,0.183c-8.125,0.873-15.706,4.498-21.488,10.272
				c-17.176,16.8-15.92,30.64-12.912,40.8c0.995,3.411,4.119,5.756,7.672,5.76h22.656c-7.724,9.246-10.117,21.828-6.328,33.264
				c1.004,3.401,4.126,5.736,7.672,5.736h61.104c3.544,0.001,6.666-2.33,7.672-5.728c1.139-3.651,1.737-7.448,1.776-11.272
				C447.995,99.735,443.251,88.992,434.928,81.4z M360,72.968c0.218-7.535,3.85-14.562,9.872-19.096
				c3.159-3.208,7.32-5.241,11.792-5.76c6.757-0.693,13.487,1.541,18.488,6.136c4.765,4.375,7.565,10.486,7.768,16.952
				c-1.248,0-2.488-0.168-3.744-0.064c-2.659,0.294-5.273,0.909-7.784,1.832H360z M432,112h-48
				c0.204-7.543,3.832-14.584,9.856-19.128c3.161-3.205,7.321-5.237,11.792-5.76c6.756-0.689,13.484,1.544,18.488,6.136
				c5.001,4.549,7.855,10.992,7.864,17.752C432,111.328,432,111.664,432,112z"/>
			<path d="M472.376,388.232l-3.4-31.816c-0.47-4.391-4.409-7.571-8.8-7.104L112,386.48V360c0-4.418-3.582-8-8-8H56
				c-4.418,0-8,3.582-8,8v27.672l-28.176-3.008c-4.354-0.498-8.289,2.628-8.787,6.982c-0.005,0.041-0.009,0.081-0.013,0.122
				l-0.8,7.288c-0.318,0.224-0.618,0.472-0.896,0.744c-1.332,1.651-1.953,3.763-1.728,5.872l3.4,31.824
				c0.438,4.066,3.871,7.147,7.96,7.144c0.289,0,0.577-0.016,0.864-0.048L48,441.6V472c0,4.418,3.582,8,8,8h48c4.418,0,8-3.582,8-8
				v-29.224l348.176,37.176c4.391,0.467,8.33-2.713,8.8-7.104l3.4-31.816c0.467-4.391-2.713-8.33-7.104-8.8l-164.8-17.6l164.8-17.6
				C469.663,396.562,472.843,392.623,472.376,388.232z M64,368h32v20.192l-22.36,2.4c-0.28-0.056-0.504-0.216-0.8-0.248l-8.84-0.96
				V368z M96,464H64v-24v-0.12l32-3.424V464z M455.624,447.28l-1.696,15.92l-304.152-32.48l75.352-8.048L455.624,447.28z
				 M225.128,406.584h-0.28c-1.172-0.119-2.357,0.029-3.464,0.432L26.072,427.832l-1.696-15.912l429.552-45.856l1.696,15.912
				L225.128,406.584z"/>
		</g>
	</g>
</g>
<g>
</g>
<g>
</g>
<g>
</g>
<g>
</g>
<g>
</g>
<g>
</g>
<g>
</g>
<g>
</g>
<g>
</g>
<g>
</g>
<g>
</g>
<g>
</g>
<g>
</g>
<g>
</g>
<g>
</g>
</svg>
