<svg fill="#ffffff" id="Capa_1" enable-background="new 0 0 512 512" height="512" viewBox="0 0 512 512" width="512" xmlns="http://www.w3.org/2000/svg"><g><path d="m497 196.001h-112.508l-85.631-142.72c-4.263-7.104-13.462-9.404-20.581-5.142-7.104 4.263-9.404 13.477-5.142 20.581l76.368 127.28h-187.012l76.368-127.28c4.263-7.104 1.963-16.318-5.142-20.581s-16.333-1.963-20.581 5.142l-85.631 142.72h-112.508c-8.291 0-15 6.709-15 15v30c0 8.291 6.709 15 15 15h482c8.291 0 15-6.709 15-15v-30c0-8.291-6.709-15-15-15z"/><path d="m479.704 286.001h-447.408l19.559 117.319c6.05 36.328 38.163 62.681 74.975 62.681h258.34c36.812 0 67.925-26.353 73.975-62.681zm-317.454 134.942c-7.842.811-15.487-5.187-16.187-13.696l-5.01-60c-.703-8.247 5.435-15.498 13.696-16.187 8.511-.923 15.513 5.449 16.187 13.696l5.01 60c.703 8.247-5.434 15.498-13.696 16.187zm108.75-14.942c0 8.291-6.709 15-15 15s-15-6.709-15-15v-60c0-8.291 6.709-15 15-15s15 6.709 15 15zm94.937 1.245c-.698 8.485-8.328 14.509-16.187 13.696-8.262-.688-14.399-7.939-13.696-16.187l5.01-60c.688-8.247 7.749-14.604 16.187-13.696 8.262.688 14.399 7.939 13.696 16.187z"/></g></svg>