<?xml version="1.0" encoding="UTF-8"?>
<svg fill="#ffffff" xmlns="http://www.w3.org/2000/svg" viewBox="0 0 512 512" width="512" height="512"><g id="outline"><path d="M472,216a24.042,24.042,0,0,0-22.629,16H408.722A107.076,107.076,0,0,0,332,200h-3.978a8,8,0,0,0,3.556-15.155l-1.385-.693,8.667-5.777,9.562,4.78a8,8,0,1,0,7.156-14.31l-1.385-.693,2.245-1.5a8,8,0,0,0-8.876-13.312L344,155.719V152a8,8,0,0,0-16,0v14.385l-8,5.333V168a8,8,0,0,0-16,0v14.385l-8,5.333V184a8,8,0,0,0-16,0v12.917a47.459,47.459,0,0,1-10.862,2.7l2.017-4.035a8,8,0,1,0-14.31-7.156l-5.109,10.218a47.2,47.2,0,0,1-12.912-5.254l4.572-2.143a8,8,0,0,0-6.792-14.486l-11.256,5.277-3.691-3.691a8,8,0,0,0-11.314,11.314l7.66,7.66c1.181,1.181,2.41,2.294,3.664,3.37a163.545,163.545,0,0,0-95.8,42.42l-.68.624a164.785,164.785,0,0,0-41.6,60.387C82.4,304.042,81.2,304,80,304a56.034,56.034,0,0,0-50.616,80H24a8,8,0,0,0-8,8,40.045,40.045,0,0,0,40,40H456a40.045,40.045,0,0,0,40-40,8,8,0,0,0-8-8h-.7a31.934,31.934,0,0,0-30.293-38.56A40.24,40.24,0,0,0,440,331.35V308a107.929,107.929,0,0,0-3.685-28h13.056a24,24,0,1,0,40.5-24A23.988,23.988,0,0,0,472,216Zm-48,92v20a39.793,39.793,0,0,0-23.747,7.835,98.668,98.668,0,0,0-34.866-33.907L375.6,291.716A39.729,39.729,0,0,1,403.882,280h15.767A91.781,91.781,0,0,1,424,308Zm-8-60v16H403.882a55.637,55.637,0,0,0-39.6,16.4l-17.941,17.942a8,8,0,0,0,2.08,12.812l4.918,2.459a82.471,82.471,0,0,1,34.511,32.669A31.962,31.962,0,0,0,345.03,384H307.912l-42.223-54.286A46.227,46.227,0,0,1,256,301.472a48.791,48.791,0,0,1,29.644-44.9A105.408,105.408,0,0,1,327.4,248ZM387.354,384h-25.2A15.993,15.993,0,0,1,376,360a15.788,15.788,0,0,1,8.4,2.393A39.729,39.729,0,0,0,387.354,384ZM314.86,194.374l9.562,4.781a7.967,7.967,0,0,0,3.538.845H306.421ZM135.993,255.525l.682-.624A147.642,147.642,0,0,1,236.682,216H332a91.18,91.18,0,0,1,51.908,16H327.4a121.381,121.381,0,0,0-48.108,9.886A64.757,64.757,0,0,0,240,301.473a62.289,62.289,0,0,0,13.061,38.063L287.644,384H263.977A37.976,37.976,0,0,0,232.8,347.65l-53.49-9.725,8.657-20.2a100.66,100.66,0,0,0,6.21-59.644l-2.33-11.65A8,8,0,0,0,177.6,243.2l-57.948,77.263a55.946,55.946,0,0,0-20.17-12.954A148.776,148.776,0,0,1,135.993,255.525ZM144,352a32.026,32.026,0,0,0-8.424,1.14,55.593,55.593,0,0,0-6.012-19.224l49.92-66.562a84.674,84.674,0,0,1-6.226,44.068l-12.612,29.427a8,8,0,0,0,5.923,11.022l63.367,11.522A21.972,21.972,0,0,1,247.954,384H176A32.036,32.036,0,0,0,144,352Zm16,32H130.6a56.013,56.013,0,0,0,4.336-13.17A15.987,15.987,0,0,1,160,384Zm-52.98-53.483a40.157,40.157,0,0,1,6.154,7.125,39.669,39.669,0,0,1,6,14.358H94.13ZM119.183,368a39.952,39.952,0,0,1-7.193,16h-8.26l-9.6-16ZM80,320a39.957,39.957,0,0,1,13.3,2.29L80,344.451,66.7,322.283A39.805,39.805,0,0,1,80,320Zm5.07,64H74.93L80,375.549ZM52.988,330.529,65.87,352H40.805A40,40,0,0,1,52.988,330.529ZM65.87,368l-9.6,16H48.006a39.482,39.482,0,0,1-7.21-16Zm397.859-4.584A15.981,15.981,0,0,1,470.58,384h-9.915a39.8,39.8,0,0,0,3.064-20.584ZM478.629,400A24.042,24.042,0,0,1,456,416H56a24.042,24.042,0,0,1-22.629-16ZM448,368a23.925,23.925,0,0,1-6.126,16h-35.76A24,24,0,1,1,448,368Zm24-104a8,8,0,1,1-8,8,8,8,0,0,0-8-8H432V248h24a8,8,0,0,0,8-8,8,8,0,1,1,8,8,8,8,0,0,0,0,16Z"/><path d="M298.4,319.647a8,8,0,0,0-12.8,9.6l12,16a8,8,0,1,0,12.8-9.6Z"/><path d="M278.4,295.647a8,8,0,0,0-12.8,9.6l3.335,4.447a8,8,0,1,0,12.8-9.6Z"/><path d="M80,104a8,8,0,0,0-8,8,11.24,11.24,0,0,1-3.314,8l-2.343,2.343a8,8,0,0,0,11.314,11.314L80,131.314A27.135,27.135,0,0,0,88,112,8,8,0,0,0,80,104Z"/><path d="M392,104a8,8,0,0,0-8,8,11.24,11.24,0,0,1-3.314,8l-2.343,2.343a8,8,0,0,0,11.314,11.314L392,131.314A27.135,27.135,0,0,0,400,112,8,8,0,0,0,392,104Z"/><path d="M125.86,169.244a11.238,11.238,0,0,1-8.655-.239l-3.025-1.352a8,8,0,1,0-6.526,14.61l3.025,1.35a27.125,27.125,0,0,0,20.9.575,8,8,0,0,0-5.717-14.944Z"/><path d="M426.934,140.271l3.027,1.354a27.135,27.135,0,0,0,20.895.574,8,8,0,1,0-5.712-14.945,11.244,11.244,0,0,1-8.656-.237l-3.025-1.353a8,8,0,0,0-6.529,14.607Z"/><path d="M267.92,88.934a11.238,11.238,0,0,1-8.657-.239l-3.026-1.351a8,8,0,0,0-6.525,14.609l3.024,1.351a27.146,27.146,0,0,0,20.9.575,8,8,0,0,0-5.713-14.945Z"/><path d="M67.988,205.452a11.267,11.267,0,0,1-8.1,3.068l-3.313-.1a8,8,0,1,0-.49,15.992l3.312.1c.288.009.573.013.86.013a27.124,27.124,0,0,0,18.689-7.417,8,8,0,1,0-10.961-11.656Z"/><path d="M171.418,110.506l-1.777-2.8a8,8,0,0,0-13.5,8.582l1.777,2.8a27.133,27.133,0,0,0,17.11,12.011,8,8,0,0,0,3.481-15.618A11.236,11.236,0,0,1,171.418,110.506Z"/><path d="M389.833,165.959A8,8,0,0,0,387.372,177l1.777,2.8a27.135,27.135,0,0,0,17.111,12.011,8,8,0,1,0,3.48-15.618,11.236,11.236,0,0,1-7.087-4.974l-1.777-2.8A8,8,0,0,0,389.833,165.959Z"/><path d="M266.005,130.7a11.24,11.24,0,0,1-7.78,3.8l-3.308.2a8,8,0,0,0,.485,15.984q.249,0,.5-.015l3.307-.2A27.133,27.133,0,0,0,278,141.3a8,8,0,0,0-11.99-10.594Z"/><path d="M335.992,88c.166,0,.333,0,.5-.016l3.307-.2a27.132,27.132,0,0,0,18.784-9.175A8,8,0,1,0,346.6,68.01a11.248,11.248,0,0,1-7.782,3.8l-3.307.2A8,8,0,0,0,335.992,88Z"/></g></svg>
